<?xml version="1.0" standalone="no"?>
<!DOCTYPE svg PUBLIC "-//W3C//DTD SVG 20010904//EN"
 "http://www.w3.org/TR/2001/REC-SVG-20010904/DTD/svg10.dtd">
<svg version="1.0" xmlns="http://www.w3.org/2000/svg"
 width="1024.000000pt" height="1024.000000pt" viewBox="0 0 1024.000000 1024.000000"
 preserveAspectRatio="xMidYMid meet">

<g transform="translate(0.000000,1024.000000) scale(0.100000,-0.100000)"
fill="#000000" stroke="none">
<path d="M4830 9693 c-30 -2 -118 -10 -195 -18 -1250 -137 -2383 -783 -3137
-1790 -518 -692 -829 -1536 -889 -2411 -14 -206 -6 -698 15 -869 100 -830 399
-1588 883 -2236 147 -198 229 -293 403 -473 776 -798 1800 -1277 2900 -1357
220 -16 622 -6 848 20 747 88 1460 362 2074 799 610 434 1122 1046 1454 1737
391 816 529 1697 413 2630 -189 1517 -1140 2862 -2484 3515 -530 257 -1074
404 -1674 450 -123 9 -476 11 -611 3z m143 -300 c-7 -2 -21 -2 -30 0 -10 3 -4
5 12 5 17 0 24 -2 18 -5z m-180 -10 c-13 -2 -33 -2 -45 0 -13 2 -3 4 22 4 25
0 35 -2 23 -4z m-115 -10 c-10 -2 -26 -2 -35 0 -10 3 -2 5 17 5 19 0 27 -2 18
-5z m-75 -10 c-7 -2 -21 -2 -30 0 -10 3 -4 5 12 5 17 0 24 -2 18 -5z m-90 -10
c-7 -2 -19 -2 -25 0 -7 3 -2 5 12 5 14 0 19 -2 13 -5z m-60 -10 c-7 -2 -19 -2
-25 0 -7 3 -2 5 12 5 14 0 19 -2 13 -5z m-50 -10 c-7 -2 -21 -2 -30 0 -10 3
-4 5 12 5 17 0 24 -2 18 -5z m-60 -10 c-7 -2 -19 -2 -25 0 -7 3 -2 5 12 5 14
0 19 -2 13 -5z m-96 -19 c-3 -3 -12 -4 -19 -1 -8 3 -5 6 6 6 11 1 17 -2 13 -5z
m-44 -11 c-7 -2 -19 -2 -25 0 -7 3 -2 5 12 5 14 0 19 -2 13 -5z m-844 -287
c-2 -2 -15 -9 -29 -15 -24 -11 -24 -11 -6 3 16 13 49 24 35 12z m2241 -1490
c0 -564 1 -608 19 -665 51 -165 180 -276 348 -301 38 -5 314 -10 631 -10 l562
0 0 -671 0 -672 -37 6 c-206 33 -443 33 -623 2 -316 -56 -620 -206 -860 -424
-491 -445 -686 -1181 -484 -1823 58 -183 157 -373 281 -539 l73 -99 -1372 2
c-1372 3 -1373 3 -1419 24 -66 31 -114 78 -146 142 l-28 57 -3 2665 c-2 1772
1 2677 7 2700 25 86 100 164 188 196 31 11 288 13 1451 14 l1412 0 0 -604z
m891 -66 l644 -639 -572 2 -572 2 -66 65 c-36 36 -68 74 -71 85 -4 18 -12
1125 -8 1125 1 0 291 -288 645 -640z m630 -2510 c139 -29 238 -64 374 -131
396 -196 669 -534 770 -952 107 -443 1 -938 -274 -1279 -101 -125 -287 -293
-366 -329 -13 -6 -12 -4 5 8 230 167 368 316 483 523 49 89 120 269 114 292
-3 10 -2 16 3 13 7 -4 11 10 26 82 1 7 -1 15 -6 18 -4 3 -6 15 -2 27 5 21 6
21 13 2 7 -18 8 -18 8 3 1 12 -4 23 -11 25 -7 3 -9 14 -4 33 6 23 9 26 17 14
7 -11 9 -11 9 4 0 9 -6 26 -12 37 -11 17 -10 22 2 30 9 6 10 10 3 10 -6 0 -15
9 -18 20 -8 24 2 60 16 60 6 0 8 -4 5 -8 -2 -4 0 -14 5 -22 14 -23 6 20 -10
49 -7 12 -11 31 -8 42 3 10 -1 23 -9 30 -8 6 -14 17 -14 23 0 6 5 4 11 -4 8
-11 9 -6 4 20 -8 44 -15 106 -16 145 -1 17 -3 24 -6 17 -3 -6 -9 -10 -14 -6
-5 3 -6 11 -2 17 12 19 13 46 3 52 -6 4 -8 11 -5 16 4 5 -1 12 -9 15 -9 3 -13
10 -10 15 3 5 -2 6 -11 3 -11 -5 -16 -2 -15 7 4 26 0 37 -16 43 -15 6 -15 4
-3 -10 11 -14 10 -15 -11 -12 -16 2 -24 9 -22 18 3 11 -2 10 -17 -4 -18 -16
-22 -17 -36 -3 -19 20 -19 22 3 24 73 7 125 23 73 23 -12 0 -19 4 -16 10 3 6
2 10 -4 10 -5 0 -11 -6 -14 -12 -6 -18 -20 -2 -22 25 -2 17 -7 21 -28 19 -14
-1 -28 2 -32 8 -3 5 -11 10 -17 10 -7 0 -6 -6 2 -15 9 -10 9 -15 1 -15 -6 0
-11 5 -11 10 0 6 -11 15 -25 20 -14 5 -25 15 -24 22 0 10 2 10 6 0 7 -18 23
-4 17 16 -2 9 2 4 9 -12 10 -19 16 -24 19 -15 8 23 -3 48 -23 54 -10 4 -19 11
-19 16 0 5 -4 9 -8 9 -13 0 -11 -34 2 -42 6 -5 7 -8 1 -8 -19 0 -30 15 -30 41
0 15 4 25 10 23 5 -2 11 7 11 21 2 21 0 22 -13 10 -17 -18 -23 -18 -43 -4 -12
9 -12 10 3 5 12 -4 17 -2 14 6 -2 7 -10 12 -17 10 -21 -5 -70 9 -70 20 0 6 7
7 16 4 8 -3 13 -2 10 3 -3 5 1 11 9 15 8 3 15 2 15 -3 0 -5 11 -11 25 -13 30
-6 34 11 5 19 -11 3 -17 9 -14 14 3 5 1 9 -5 9 -5 0 -13 -5 -16 -10 -5 -8 -12
-7 -23 2 -9 8 -13 8 -9 2 4 -7 0 -15 -9 -18 -10 -4 -13 -1 -9 7 3 6 0 5 -6 -4
-11 -15 -14 -14 -31 3 -19 19 -24 33 -8 23 6 -3 10 -2 10 4 0 5 -4 13 -10 16
-5 3 -10 1 -10 -4 0 -6 -4 -11 -10 -11 -5 0 -8 14 -6 31 2 19 -1 32 -10 36 -8
3 -11 9 -8 14 6 10 -7 11 -58 3 -20 -4 -39 -12 -41 -18 -2 -6 -3 -3 -2 6 2 9
-2 19 -9 22 -6 2 -3 5 7 5 18 1 25 31 6 31 -5 0 -7 -4 -4 -10 3 -5 -1 -10 -9
-10 -9 0 -17 -4 -17 -10 -1 -5 -2 -15 -3 -22 -1 -15 -26 -23 -26 -9 0 6 -7 11
-16 11 -8 0 -12 5 -9 10 3 6 1 10 -4 10 -6 0 -11 -5 -11 -11 0 -8 -14 -10 -42
-6 -23 3 -36 2 -29 -2 9 -6 4 -10 -15 -15 -19 -5 -24 -10 -15 -15 10 -6 9 -10
-3 -14 -9 -4 -16 -2 -16 4 0 6 -7 9 -14 6 -20 -8 -33 32 -15 45 10 7 8 8 -6 3
-11 -4 -25 -8 -32 -8 -8 0 -9 -6 -2 -18 13 -25 11 -33 -11 -46 -14 -9 -21 -10
-26 -1 -4 7 -3 8 4 4 8 -4 12 0 12 11 0 21 -20 56 -20 36 0 -7 -7 -13 -15 -13
-8 0 -15 5 -15 11 0 5 -4 7 -10 4 -5 -3 -10 -1 -10 5 0 7 -7 10 -15 6 -8 -3
-15 -1 -15 4 0 6 -7 10 -15 10 -21 0 -19 -16 7 -40 18 -17 19 -20 5 -20 -15 0
-18 -5 -16 -27 0 -5 7 -7 16 -5 13 3 13 1 2 -11 -12 -12 -15 -12 -26 2 -16 20
-16 38 -1 43 6 2 8 10 4 17 -6 9 -12 8 -27 -5 -27 -24 -33 -12 -10 17 18 24
18 25 1 25 -10 0 -16 -4 -14 -8 3 -4 1 -8 -5 -8 -5 0 -12 6 -14 13 -3 6 -6 -2
-6 -19 -1 -28 -3 -30 -32 -26 -26 4 -30 8 -25 28 3 12 1 26 -4 29 -8 5 -7 11
1 21 10 12 9 13 -6 8 -13 -5 -16 -4 -11 4 4 7 2 12 -4 12 -7 0 -10 -6 -8 -12
3 -7 -2 -19 -10 -27 -12 -13 -12 -16 7 -22 34 -13 16 -39 -20 -29 -27 8 -32 5
-56 -31 -25 -38 -48 -53 -37 -25 3 8 -3 19 -16 26 -12 6 -18 16 -13 23 14 22
10 44 -7 40 -20 -5 -22 -73 -3 -73 7 0 10 -7 6 -17 -5 -11 -3 -14 6 -8 10 5
11 2 6 -14 -4 -12 -2 -21 4 -21 6 0 11 -7 11 -16 0 -21 -19 -7 -30 22 -5 13
-16 24 -24 24 -10 0 -12 7 -8 22 4 17 2 20 -13 15 -12 -5 -16 -3 -12 7 4 11
-2 14 -23 14 -37 -1 -47 -26 -20 -52 18 -18 20 -18 20 -3 0 9 -5 16 -11 15 -6
-2 -14 3 -17 11 -3 10 0 12 11 8 9 -3 18 -1 21 6 2 7 5 -3 5 -20 1 -19 6 -33
14 -34 6 0 0 -5 -15 -10 -19 -7 -25 -15 -21 -27 4 -14 3 -15 -6 -2 -8 12 -13
12 -23 2 -16 -16 -25 -15 -31 2 -4 9 0 12 12 9 10 -2 24 4 32 13 12 16 12 17
-4 11 -11 -4 -20 -1 -23 8 -4 8 -16 15 -28 15 -19 1 -18 3 8 16 27 15 27 16 9
29 -26 18 -68 9 -52 -11 18 -22 4 -27 -24 -9 -14 8 -29 15 -33 14 -5 -1 -19
-1 -30 0 -17 1 -20 6 -17 25 3 14 11 27 19 30 18 7 30 -14 13 -25 -10 -6 -6
-11 14 -18 38 -15 42 -14 26 5 -7 9 -14 23 -15 32 -3 18 -28 35 -32 22 -2 -5
-9 -7 -17 -4 -7 3 -16 -3 -20 -15 -3 -12 -11 -19 -16 -16 -5 4 -9 -1 -9 -9 0
-9 0 -19 0 -23 0 -5 4 -8 9 -8 17 0 23 -13 16 -35 -5 -15 -10 -18 -19 -11 -7
6 -22 8 -34 4 -19 -5 -22 -2 -19 18 2 13 9 25 16 27 8 3 6 8 -6 18 -24 18 -37
18 -30 0 7 -17 -27 -59 -38 -48 -5 4 -6 3 -3 -3 11 -19 -16 -33 -42 -23 l-25
10 25 9 c20 8 22 12 10 19 -9 5 -19 5 -27 -2 -10 -8 -13 -5 -13 11 0 11 6 21
14 21 9 0 12 7 9 20 -6 23 -23 27 -23 5 0 -13 -12 -19 -32 -16 -4 0 1 -14 12
-32 23 -36 26 -54 7 -39 -8 7 -17 6 -30 -3 -16 -11 -17 -16 -5 -34 7 -12 17
-20 23 -17 40 14 55 16 55 6 0 -6 4 -9 8 -6 4 2 9 -7 10 -20 1 -15 -2 -23 -8
-19 -6 4 -8 10 -5 15 8 14 -14 22 -40 16 -16 -4 -23 -12 -20 -24 2 -11 -3 -19
-11 -19 -8 0 -14 4 -14 9 0 4 5 8 11 8 5 0 7 5 4 10 -4 6 -10 8 -15 5 -5 -3
-7 3 -5 14 2 13 -1 18 -13 14 -13 -3 -18 3 -19 27 -2 27 0 30 21 24 19 -4 24
-2 23 13 -3 27 -19 34 -39 16 -9 -8 -24 -13 -33 -9 -9 3 -13 2 -10 -4 3 -6 1
-10 -4 -10 -6 0 -11 6 -11 14 0 7 -10 16 -22 19 -21 5 -21 5 -6 -7 16 -11 16
-14 1 -28 -19 -19 -9 -40 15 -31 9 3 -1 -10 -23 -31 -22 -20 -44 -36 -48 -36
-5 0 -6 -4 -3 -8 2 -4 0 -14 -6 -22 -7 -11 -8 -7 -4 16 l5 32 -41 -6 c-30 -3
-39 -2 -34 6 5 8 -2 12 -18 12 -20 0 -26 5 -26 23 -1 20 -2 20 -11 4 -8 -13
-7 -22 1 -32 10 -12 7 -17 -15 -27 -20 -9 -26 -17 -22 -35 3 -15 0 -22 -7 -20
-6 2 -11 8 -11 14 0 10 -30 43 -39 43 -13 0 -5 -31 9 -36 8 -4 15 -11 15 -17
0 -8 -3 -8 -11 0 -6 6 -18 9 -27 6 -10 -4 -13 -2 -8 5 4 7 1 12 -7 12 -8 0
-22 11 -30 24 -16 23 -15 24 13 28 16 2 27 1 24 -4 -3 -4 -1 -8 5 -8 19 0 20
16 1 28 -13 8 -21 8 -25 1 -5 -7 -11 -7 -20 1 -16 13 -26 -8 -19 -38 4 -12 0
-22 -10 -25 -12 -5 -13 -11 -3 -36 6 -16 14 -28 18 -25 4 2 6 -4 4 -13 -2 -10
-4 -20 -4 -22 -1 -3 -7 4 -15 14 -8 11 -13 22 -11 25 1 3 -11 19 -27 35 -17
17 -27 23 -23 15 6 -12 5 -13 -6 -2 -23 21 -32 13 -14 -14 9 -14 14 -29 10
-32 -3 -4 -9 -1 -13 5 -6 9 -17 7 -42 -8 -26 -16 -30 -23 -19 -30 11 -7 9 -9
-8 -9 -12 0 -25 -4 -28 -10 -8 -13 -25 -13 -25 0 0 5 12 16 27 23 33 18 41 67
9 59 -12 -3 -15 -7 -8 -10 25 -8 12 -24 -15 -18 -48 12 -83 14 -77 5 3 -5 16
-9 29 -9 26 0 34 -15 26 -46 -6 -20 -6 -20 -25 -2 -17 16 -18 18 -3 18 9 0 17
4 17 9 0 18 -38 -1 -48 -24 -8 -18 -16 -21 -39 -17 l-28 5 23 -20 c23 -21 29
-48 13 -58 -6 -3 -15 3 -21 12 -11 17 -11 17 -6 1 3 -11 0 -18 -8 -18 -15 0
-29 -27 -21 -40 3 -4 -2 -13 -10 -20 -12 -10 -12 -16 -4 -26 9 -11 7 -15 -6
-20 -13 -5 -14 -9 -3 -15 10 -6 9 -12 -7 -24 -16 -12 -17 -14 -2 -9 21 8 23
-12 1 -20 -8 -3 -12 -10 -9 -16 3 -5 2 -10 -3 -10 -9 0 -15 -26 -26 -100 -2
-14 -5 -25 -6 -25 -1 0 -4 -13 -5 -30 -1 -16 -5 -43 -9 -58 -4 -19 -3 -26 4
-22 12 8 13 -34 1 -54 -6 -9 -5 -24 0 -39 9 -23 8 -24 -8 -11 -15 13 -16 12
-9 -6 5 -11 9 -51 10 -90 4 -177 98 -433 231 -635 57 -85 210 -248 299 -319
34 -26 108 -76 166 -111 58 -34 96 -59 85 -56 -29 10 -183 104 -230 140 -319
243 -519 588 -571 980 -20 147 -13 354 15 496 126 619 620 1085 1249 1175 134
20 386 12 513 -15z m589 -630 c0 -5 -7 -10 -15 -10 -8 0 -15 5 -15 10 0 6 7
10 15 10 8 0 15 -4 15 -10z m-170 -10 c0 -5 -5 -10 -11 -10 -5 0 -7 5 -4 10 3
6 8 10 11 10 2 0 4 -4 4 -10z m-820 -20 c0 -5 -2 -10 -4 -10 -3 0 -8 5 -11 10
-3 6 -1 10 4 10 6 0 11 -4 11 -10z m945 0 c3 -6 -1 -7 -9 -4 -18 7 -21 14 -7
14 6 0 13 -4 16 -10z m59 -5 c-4 -8 -11 -15 -16 -15 -6 0 -5 6 2 15 7 8 14 15
16 15 2 0 1 -7 -2 -15z m-714 -5 c0 -13 27 -13 32 0 2 6 8 6 18 0 12 -8 12
-10 -5 -10 -17 0 -18 -2 -5 -11 13 -9 13 -10 -2 -6 -20 7 -32 -19 -12 -27 8
-3 14 -2 14 2 0 4 9 13 20 20 19 12 20 11 8 -8 -7 -11 -16 -20 -20 -20 -5 0
-8 -7 -8 -16 0 -12 -6 -10 -21 10 -11 14 -18 30 -15 35 4 5 -3 12 -14 16 -23
7 -27 25 -5 25 8 0 15 -4 15 -10z m647 -12 c36 -26 112 -118 136 -165 23 -44
21 -91 -6 -134 -31 -51 -1135 -1215 -1164 -1228 -34 -15 -109 -14 -141 3 -31
16 -607 603 -635 647 -24 37 -25 105 -2 149 25 48 103 137 141 161 20 12 49
19 80 19 l48 0 224 -222 223 -223 37 42 c127 143 907 963 921 966 47 13 108 6
138 -15z m-492 2 c-4 -6 -11 -8 -16 -5 -5 4 -9 -1 -9 -10 0 -9 -5 -13 -10 -10
-8 5 -7 11 1 21 13 16 44 19 34 4z m85 0 c0 -5 -2 -10 -4 -10 -3 0 -8 5 -11
10 -3 6 -1 10 4 10 6 0 11 -4 11 -10z m30 0 c0 -5 -4 -10 -10 -10 -5 0 -10 5
-10 10 0 6 5 10 10 10 6 0 10 -4 10 -10z m-634 -15 c-3 -8 -1 -15 4 -15 6 0
10 -7 10 -15 0 -9 -9 -15 -22 -15 -17 0 -19 3 -9 9 9 6 10 10 2 12 -14 5 -4
39 11 39 6 0 8 -7 4 -15z m335 -21 c7 -8 1 -10 -18 -6 -16 3 -22 7 -15 9 6 3
12 12 13 21 0 14 2 14 6 2 3 -8 10 -20 14 -26z m-505 -26 c-9 -12 -16 -20 -17
-18 -6 34 -4 56 5 62 19 13 28 -21 12 -44z m-220 -23 c-10 -28 -26 -16 -19 15
4 22 2 30 -8 30 -11 0 -11 2 1 10 11 7 17 3 23 -16 5 -13 6 -31 3 -39z m342
45 c-9 -14 -14 -16 -20 -7 -6 10 5 20 30 26 1 1 -3 -8 -10 -19z m87 0 c-3 -5
2 -10 12 -11 11 0 13 -3 5 -6 -10 -4 -9 -8 5 -19 15 -11 16 -13 2 -14 -16 0
-42 43 -32 54 10 10 15 7 8 -4z m415 -5 c-7 -9 -15 -13 -17 -11 -7 7 7 26 19
26 6 0 6 -6 -2 -15z m-550 -29 c0 -6 -5 -4 -10 4 -8 12 -10 11 -10 -7 0 -23
-17 -40 -28 -28 -3 3 0 10 8 15 13 9 13 10 0 11 -10 0 -11 2 -2 6 6 2 12 12
12 20 0 13 3 13 15 3 8 -7 15 -18 15 -24z m377 12 c2 -18 0 -20 -7 -8 -12 18
-13 30 -2 30 4 0 9 -10 9 -22z m223 18 c0 -3 -4 -8 -10 -11 -5 -3 -10 -1 -10
4 0 6 5 11 10 11 6 0 10 -2 10 -4z m-286 -32 c3 -8 2 -12 -4 -9 -6 3 -10 10
-10 16 0 14 7 11 14 -7z m-220 -9 c3 -8 2 -14 -2 -14 -4 1 -16 1 -27 0 -16 -1
-17 -3 -5 -11 8 -5 11 -13 6 -17 -4 -4 -14 1 -22 11 -18 25 -18 40 -1 33 8 -3
20 -1 28 4 18 11 16 12 23 -6z m312 -21 c-6 -31 -16 -45 -16 -21 0 18 10 47
16 47 3 0 2 -12 0 -26z m-672 -8 c-7 -19 -25 -22 -21 -3 2 12 19 28 24 23 2
-2 1 -11 -3 -20z m171 14 c3 5 12 10 18 9 9 0 9 -2 0 -5 -7 -3 -9 -12 -6 -20
8 -22 -12 -17 -33 8 -13 16 -14 19 -2 10 11 -9 18 -10 23 -2z m546 -8 c-7 -2
-18 1 -23 6 -8 8 -4 9 13 5 13 -4 18 -8 10 -11z m-965 -51 c-6 -2 -17 -8 -23
-13 -7 -6 -6 4 4 23 14 29 17 31 23 13 4 -11 3 -21 -4 -23z m50 24 c8 -20 -3
-48 -16 -40 -8 5 -7 12 2 23 7 9 8 13 2 9 -6 -3 -11 0 -11 8 0 19 16 19 23 0z
m388 -27 c-3 -5 -12 -1 -20 7 -9 8 -19 13 -23 11 -4 -3 -8 1 -8 8 0 10 6 10
28 -3 15 -8 25 -19 23 -23z m346 22 c0 -24 -6 -25 -26 -6 -11 11 -11 16 -1 19
22 10 27 7 27 -13z m-590 0 c3 -1 -11 -6 -30 -9 -20 -4 -34 -12 -32 -19 1 -7
-3 -12 -9 -12 -5 0 -7 -5 -3 -12 4 -7 3 -8 -4 -4 -14 9 -9 51 6 51 6 0 13 3
16 6 6 6 44 5 56 -1z m438 -13 c3 -13 -1 -15 -14 -10 -13 5 -14 8 -5 11 11 4
11 6 0 14 -11 8 -11 9 1 5 8 -2 16 -11 18 -20z m1242 8 c0 -12 -19 -12 -23 0
-4 9 -1 12 9 8 7 -3 14 -7 14 -8z m-1630 -10 c0 -8 -2 -15 -4 -15 -2 0 -6 7
-10 15 -3 8 -1 15 4 15 6 0 10 -7 10 -15z m577 9 c-3 -3 -12 -4 -19 -1 -8 3
-5 6 6 6 11 1 17 -2 13 -5z m253 -3 c0 -5 -7 -11 -15 -15 -15 -5 -20 5 -8 17
9 10 23 9 23 -2z m-1265 -10 c3 -5 1 -12 -5 -16 -5 -3 -10 1 -10 9 0 18 6 21
15 7z m155 5 c0 -3 -4 -8 -10 -11 -5 -3 -10 -1 -10 4 0 6 5 11 10 11 6 0 10
-2 10 -4z m1005 -6 c3 -6 -1 -7 -9 -4 -18 7 -21 14 -7 14 6 0 13 -4 16 -10z
m-878 -26 c-3 -3 -12 -4 -19 -1 -8 3 -5 6 6 6 11 1 17 -2 13 -5z m196 -24 c-9
-11 -19 -18 -21 -16 -6 7 22 45 30 40 4 -3 0 -13 -9 -24z m-293 10 c0 -5 -4
-10 -10 -10 -5 0 -10 5 -10 10 0 6 5 10 10 10 6 0 10 -4 10 -10z m95 -10 c3
-5 1 -10 -4 -10 -6 0 -11 5 -11 10 0 6 2 10 4 10 3 0 8 -4 11 -10z m-410 -11
c12 -18 -3 -22 -20 -5 -14 14 -14 16 -1 16 8 0 18 -5 21 -11z m470 1 c3 -5 1
-10 -4 -10 -6 0 -11 5 -11 10 0 6 2 10 4 10 3 0 8 -4 11 -10z m-417 -6 c26 -7
29 -29 6 -38 -15 -6 -15 -4 -3 10 12 15 12 16 -7 10 -15 -4 -24 -2 -28 9 -6
16 -2 18 32 9z m166 -12 c3 -5 -1 -9 -9 -9 -8 0 -12 4 -9 9 3 4 7 8 9 8 2 0 6
-4 9 -8z m206 4 c0 -3 -4 -8 -10 -11 -5 -3 -10 -1 -10 4 0 6 5 11 10 11 6 0
10 -2 10 -4z m1775 -6 c-3 -5 -12 -10 -18 -10 -7 0 -6 4 3 10 19 12 23 12 15
0z m-2231 -25 c-7 -16 -24 -21 -24 -6 0 8 7 13 27 20 1 1 0 -6 -3 -14z m-32
-37 c-6 -6 -9 0 -9 18 0 23 1 24 9 10 7 -12 7 -21 0 -28z m-72 15 c0 -10 -4
-24 -9 -31 -5 -9 -8 -3 -7 17 1 32 16 45 16 14z m176 5 c3 -4 -1 -5 -10 -4 -8
1 -18 5 -22 8 -3 4 1 5 10 4 8 -1 18 -5 22 -8z m44 2 c0 -5 -7 -10 -16 -10 -8
0 -12 5 -9 10 3 6 10 10 16 10 5 0 9 -4 9 -10z m40 -10 c0 -5 -2 -10 -4 -10
-3 0 -8 5 -11 10 -3 6 -1 10 4 10 6 0 11 -4 11 -10z m2124 -5 c-4 -8 -8 -15
-10 -15 -2 0 -4 7 -4 15 0 8 4 15 10 15 5 0 7 -7 4 -15z m96 -5 c15 -13 18
-20 9 -20 -8 0 -24 -3 -36 -6 -21 -6 -21 -4 -10 20 7 14 12 26 13 26 1 0 11
-9 24 -20z m-2460 -27 c0 -5 -5 -15 -10 -23 -7 -12 -9 -10 -7 8 1 19 17 33 17
15z m54 -8 c-4 -8 -10 -12 -15 -9 -11 6 -2 24 11 24 5 0 7 -7 4 -15z m-117
-20 c-4 -8 -12 -15 -19 -14 -10 0 -10 2 0 6 6 2 12 12 12 21 0 8 3 13 6 9 4
-3 4 -13 1 -22z m-47 -19 c0 -11 -19 -15 -25 -6 -3 5 1 10 9 10 9 0 16 -2 16
-4z m30 -25 c0 -5 -9 -11 -20 -14 -11 -3 -20 -1 -20 3 0 5 8 11 18 13 9 3 18
5 20 6 1 0 2 -3 2 -8z m2586 0 c-8 -12 -46 -21 -46 -11 0 5 10 11 23 13 12 2
23 5 25 6 2 0 1 -3 -2 -8z m79 -33 c4 4 6 0 3 -8 -3 -8 -12 -16 -21 -18 -12
-2 -15 1 -11 12 4 11 1 16 -11 16 -9 0 -14 -4 -10 -9 3 -5 2 -12 -3 -15 -13
-8 -11 28 2 36 7 5 7 8 -2 8 -7 0 -10 5 -6 12 5 8 14 3 30 -15 12 -14 25 -23
29 -19z m25 -67 c0 -8 -19 -37 -21 -31 0 3 -2 12 -4 21 -1 9 4 16 11 16 8 0
14 -3 14 -6z m3 -75 c4 -10 1 -13 -8 -9 -8 3 -12 9 -9 14 7 12 11 11 17 -5z
m-613 -1451 c0 -2 -13 -11 -30 -20 -38 -19 -40 -11 -2 9 31 17 32 18 32 11z
m-70 -40 c0 -6 -76 -45 -87 -45 -4 1 12 12 37 25 50 27 50 27 50 20z m-1282
-65 c3 0 3 -2 0 -5 -5 -6 -78 22 -78 30 0 3 16 -2 36 -10 20 -8 39 -15 42 -15z
m1142 -4 c-14 -7 -36 -16 -50 -20 -14 -3 -7 3 15 13 45 22 73 27 35 7z m-1079
-22 c24 -9 85 -27 134 -40 51 -13 70 -21 45 -18 -47 6 -230 62 -230 69 0 7 4
6 51 -11z m954 -24 c-11 -5 -27 -9 -35 -9 -9 0 -8 4 5 9 11 5 27 9 35 9 9 0 8
-4 -5 -9z m-75 -20 c-14 -4 -34 -8 -45 -8 -16 0 -15 2 5 8 14 4 34 8 45 8 16
0 15 -2 -5 -8z m-77 -17 c-7 -2 -19 -2 -25 0 -7 3 -2 5 12 5 14 0 19 -2 13 -5z
m-530 -10 c-7 -2 -21 -2 -30 0 -10 3 -4 5 12 5 17 0 24 -2 18 -5z m480 0 c-7
-2 -21 -2 -30 0 -10 3 -4 5 12 5 17 0 24 -2 18 -5z m-395 -10 c-10 -2 -28 -2
-40 0 -13 2 -5 4 17 4 22 1 32 -1 23 -4z m325 0 c-13 -2 -33 -2 -45 0 -13 2
-3 4 22 4 25 0 35 -2 23 -4z m-135 -10 c-27 -2 -69 -2 -95 0 -27 2 -5 3 47 3
52 0 74 -1 48 -3z"/>
<path d="M3319 6077 c-18 -12 -39 -34 -46 -47 -17 -34 -16 -115 2 -150 33 -64
-72 -60 1555 -60 1634 0 1521 -5 1554 64 33 70 12 160 -46 196 -33 20 -46 20
-1509 20 l-1476 0 -34 -23z"/>
<path d="M3356 5190 c-106 -32 -130 -178 -40 -249 l27 -21 1099 0 c1199 0
1134 -3 1173 57 12 18 19 47 19 79 1 64 -36 118 -92 134 -46 12 -2143 12
-2186 0z"/>
<path d="M3341 4292 c-45 -22 -71 -59 -78 -109 -7 -51 19 -109 61 -134 30 -18
64 -19 756 -19 560 0 731 3 750 13 13 7 35 28 48 47 32 47 27 127 -9 166 -50
55 -32 54 -791 54 -650 0 -706 -1 -737 -18z"/>
<path d="M7127 4465 c3 -8 9 -12 14 -9 12 7 11 11 -5 17 -10 4 -13 1 -9 -8z"/>
<path d="M6540 4448 c0 -4 7 -8 15 -8 8 0 15 4 15 8 0 5 -7 9 -15 9 -8 0 -15
-4 -15 -9z"/>
<path d="M7205 4450 c3 -5 10 -10 16 -10 5 0 9 5 9 10 0 6 -7 10 -16 10 -8 0
-12 -4 -9 -10z"/>
<path d="M7377 4429 c6 -22 20 -26 20 -4 0 8 -6 16 -13 19 -7 3 -10 -2 -7 -15z"/>
<path d="M6341 4424 c0 -11 3 -14 6 -6 3 7 2 16 -1 19 -3 4 -6 -2 -5 -13z"/>
<path d="M6490 4420 c0 -5 5 -10 11 -10 5 0 7 5 4 10 -3 6 -8 10 -11 10 -2 0
-4 -4 -4 -10z"/>
<path d="M7144 4422 c-20 -14 -66 -82 -55 -82 6 0 11 -4 11 -10 0 -5 -7 -10
-15 -10 -8 0 -15 -4 -15 -10 0 -15 16 -12 30 5 7 8 10 22 6 30 -3 9 0 15 9 15
8 0 15 7 15 16 0 8 4 12 10 9 6 -4 7 1 3 11 -5 13 -3 16 10 11 11 -4 14 -2 10
9 -6 16 -5 16 -19 6z"/>
<path d="M6626 4403 c-4 -11 -2 -13 9 -9 8 3 15 0 15 -6 0 -6 3 -8 7 -5 3 4
12 2 20 -4 7 -6 13 -8 13 -3 0 5 -13 16 -29 26 -26 14 -30 14 -35 1z"/>
<path d="M7095 4410 c3 -5 8 -10 11 -10 2 0 4 5 4 10 0 6 -5 10 -11 10 -5 0
-7 -4 -4 -10z"/>
<path d="M7265 4413 c-31 -7 -40 -21 -11 -16 15 3 29 9 32 14 3 5 4 8 2 8 -2
-1 -12 -3 -23 -6z"/>
<path d="M6716 4395 c6 -15 34 -28 42 -20 3 3 0 5 -7 5 -7 0 -11 6 -8 13 3 7
-3 13 -14 14 -11 1 -16 -3 -13 -12z"/>
<path d="M6985 4390 c-17 -18 -17 -20 -2 -14 9 3 17 10 17 14 0 5 8 11 18 13
14 4 14 5 1 6 -9 0 -24 -8 -34 -19z"/>
<path d="M7207 4391 c4 -17 3 -22 -5 -17 -7 4 -12 2 -12 -3 0 -6 14 -11 30
-11 17 0 30 5 30 10 0 6 -4 9 -9 8 -5 -2 -16 6 -25 17 -15 19 -15 19 -9 -4z"/>
<path d="M6165 4390 c3 -5 11 -10 16 -10 6 0 7 5 4 10 -3 6 -11 10 -16 10 -6
0 -7 -4 -4 -10z"/>
<path d="M6230 4395 c0 -5 5 -17 10 -25 5 -8 10 -10 10 -5 0 6 -5 17 -10 25
-5 8 -10 11 -10 5z"/>
<path d="M6293 4369 c-6 -16 -8 -30 -5 -30 28 -5 52 -2 54 6 2 5 -4 10 -12 11
-30 2 -32 4 -21 18 7 8 8 17 3 19 -4 3 -13 -7 -19 -24z"/>
<path d="M7328 4393 c7 -3 16 -2 19 1 4 3 -2 6 -13 5 -11 0 -14 -3 -6 -6z"/>
<path d="M6825 4380 c-8 -13 -1 -24 14 -19 6 3 7 10 2 18 -6 10 -10 10 -16 1z"/>
<path d="M6200 4364 c0 -8 5 -12 10 -9 6 4 8 11 5 16 -9 14 -15 11 -15 -7z"/>
<path d="M6524 4363 c10 -13 23 -20 29 -16 7 4 6 8 -3 11 -8 3 -22 10 -30 16
-8 6 -7 1 4 -11z"/>
<path d="M6865 4370 c3 -5 8 -10 11 -10 2 0 4 5 4 10 0 6 -5 10 -11 10 -5 0
-7 -4 -4 -10z"/>
<path d="M7156 4371 c-4 -7 -5 -15 -2 -18 9 -9 19 4 14 18 -4 11 -6 11 -12 0z"/>
<path d="M7356 4363 c-6 -14 -5 -15 5 -6 7 7 10 15 7 18 -3 3 -9 -2 -12 -12z"/>
<path d="M6435 4360 c-3 -6 1 -7 9 -4 18 7 21 14 7 14 -6 0 -13 -4 -16 -10z"/>
<path d="M6921 4358 c-1 -20 14 -24 25 -6 4 6 3 8 -4 4 -5 -3 -13 0 -15 6 -3
8 -6 6 -6 -4z"/>
<path d="M7315 4360 c-3 -6 1 -7 9 -4 18 7 21 14 7 14 -6 0 -13 -4 -16 -10z"/>
<path d="M6390 4348 c0 -9 5 -20 10 -23 13 -8 13 5 0 25 -8 13 -10 13 -10 -2z"/>
<path d="M6710 4336 c0 -25 30 -44 50 -31 17 11 11 24 -20 40 -29 15 -30 15
-30 -9z m35 -6 c3 -5 -1 -10 -9 -10 -9 0 -16 5 -16 10 0 6 4 10 9 10 6 0 13
-4 16 -10z"/>
<path d="M6672 4335 c-18 -10 -20 -14 -9 -23 10 -8 16 -6 26 9 16 26 12 29
-17 14z"/>
<path d="M7265 4340 c3 -5 8 -10 11 -10 2 0 4 5 4 10 0 6 -5 10 -11 10 -5 0
-7 -4 -4 -10z"/>
<path d="M6505 4330 c3 -5 10 -10 16 -10 5 0 9 5 9 10 0 6 -7 10 -16 10 -8 0
-12 -4 -9 -10z"/>
<path d="M6951 4321 c-8 -6 -9 -11 -3 -15 6 -3 14 -1 17 5 9 14 2 20 -14 10z"/>
<path d="M6437 4309 c7 -7 15 -10 18 -7 3 3 -2 9 -12 12 -14 6 -15 5 -6 -5z"/>
<path d="M6830 4309 c0 -5 5 -7 10 -4 6 3 10 8 10 11 0 2 -4 4 -10 4 -5 0 -10
-5 -10 -11z"/>
<path d="M6237 4303 c-14 -13 -6 -20 19 -17 27 3 59 24 37 24 -7 0 -15 -5 -18
-10 -5 -8 -11 -8 -19 -1 -7 6 -16 8 -19 4z"/>
<path d="M6400 4290 c0 -11 5 -20 10 -20 6 0 12 0 15 0 3 0 5 3 4 8 -1 4 -6 6
-11 4 -6 -2 -8 4 -5 13 4 8 2 15 -3 15 -6 0 -10 -9 -10 -20z"/>
<path d="M5955 4290 c3 -5 11 -10 16 -10 6 0 7 5 4 10 -3 6 -11 10 -16 10 -6
0 -7 -4 -4 -10z"/>
<path d="M5780 4280 c0 -5 5 -10 10 -10 6 0 10 5 10 10 0 6 -4 10 -10 10 -5 0
-10 -4 -10 -10z"/>
<path d="M6010 4280 c0 -5 5 -10 10 -10 6 0 10 5 10 10 0 6 -4 10 -10 10 -5 0
-10 -4 -10 -10z"/>
<path d="M6082 4248 c2 -6 10 -14 16 -16 7 -2 10 2 6 12 -7 18 -28 22 -22 4z"/>
<path d="M7795 4249 c-11 -17 1 -21 15 -4 8 9 8 15 2 15 -6 0 -14 -5 -17 -11z"/>
<path d="M5893 4233 c-3 -10 -8 -21 -10 -25 -2 -5 1 -8 6 -8 6 0 11 9 11 19 0
11 6 22 13 24 9 4 9 6 -1 6 -7 1 -15 -7 -19 -16z"/>
<path d="M6145 4229 c6 -17 4 -20 -12 -15 -22 7 -36 -2 -52 -31 -10 -19 -9
-23 3 -23 8 0 16 10 18 22 4 28 28 36 28 9 0 -22 24 -29 35 -11 3 6 2 10 -4
10 -6 0 -8 12 -4 30 3 20 1 30 -6 30 -8 0 -10 -8 -6 -21z"/>
<path d="M5809 4231 c12 -8 12 -12 2 -25 -8 -9 -9 -16 -3 -16 15 0 35 28 27
40 -3 5 -14 10 -23 10 -14 0 -15 -2 -3 -9z"/>
<path d="M5736 4223 c6 -4 14 -15 17 -23 5 -11 6 -9 4 4 -1 11 -9 21 -17 23
-10 3 -11 2 -4 -4z"/>
<path d="M5954 4216 c-6 -6 -10 -22 -9 -34 1 -12 -4 -22 -11 -22 -8 0 -11 -6
-8 -14 10 -26 36 -6 29 21 -3 14 -2 22 3 19 6 -3 12 3 15 14 6 24 -4 32 -19
16z"/>
<path d="M6060 4215 c-7 -8 -16 -12 -21 -9 -5 3 -6 -2 -3 -11 4 -9 7 -15 8
-13 1 2 10 13 20 26 11 12 17 22 14 22 -3 0 -11 -7 -18 -15z"/>
<path d="M5647 4205 c3 -8 9 -12 14 -9 12 7 11 11 -5 17 -10 4 -13 1 -9 -8z"/>
<path d="M5768 4172 c7 -5 10 -16 6 -25 -4 -12 -1 -17 10 -17 12 0 13 5 7 22
-4 12 -14 24 -22 26 -11 3 -11 2 -1 -6z"/>
<path d="M5720 4150 c0 -5 5 -10 10 -10 6 0 10 5 10 10 0 6 -4 10 -10 10 -5 0
-10 -4 -10 -10z"/>
<path d="M5625 4140 c-3 -5 1 -10 10 -10 9 0 13 5 10 10 -3 6 -8 10 -10 10 -2
0 -7 -4 -10 -10z"/>
<path d="M5688 4123 c-4 -14 0 -24 8 -27 15 -6 16 -1 5 28 -7 19 -8 19 -13 -1z"/>
<path d="M8024 4034 c3 -9 6 -18 6 -20 0 -3 5 -2 10 1 16 10 12 35 -6 35 -11
0 -14 -5 -10 -16z"/>
<path d="M5521 4014 c0 -11 3 -14 6 -6 3 7 2 16 -1 19 -3 4 -6 -2 -5 -13z"/>
<path d="M8166 3977 c3 -10 9 -15 12 -12 3 3 0 11 -7 18 -10 9 -11 8 -5 -6z"/>
</g>
</svg>
